<svg width="18" height="17" viewBox="0 0 18 17" fill="none" xmlns="http://www.w3.org/2000/svg">
    <path d="M1.6875 0.375C0.738281 0.375 0 1.14844 0 2.0625V14.4375C0 15.3867 0.738281 16.125 1.6875 16.125H16.3125C17.2266 16.125 18 15.3867 18 14.4375V2.0625C18 1.14844 17.2266 0.375 16.3125 0.375H1.6875ZM1.6875 1.5H5.41406C5.51953 1.5 5.625 1.60547 5.625 1.71094V2.41406C5.625 2.55469 5.51953 2.625 5.41406 2.625H1.33594C1.19531 2.625 1.125 2.55469 1.125 2.41406V2.0625C1.125 1.78125 1.37109 1.5 1.6875 1.5ZM16.6641 4.875H1.33594C1.19531 4.875 1.125 4.80469 1.125 4.66406V3.39844C1.125 3.29297 1.19531 3.1875 1.33594 3.1875H6.1875L7.24219 1.60547C7.27734 1.53516 7.34766 1.5 7.41797 1.5H16.3125C16.5938 1.5 16.875 1.78125 16.875 2.0625V4.66406C16.875 4.80469 16.7695 4.875 16.6641 4.875ZM9 14.1562C6.64453 14.1562 4.78125 12.293 4.78125 9.9375C4.78125 7.61719 6.64453 5.71875 9 5.71875C11.3203 5.71875 13.2188 7.61719 13.2188 9.9375C13.2188 12.293 11.3203 14.1562 9 14.1562ZM9 6.84375C7.27734 6.84375 5.90625 8.25 5.90625 9.9375C5.90625 11.6602 7.27734 13.0312 9 13.0312C10.6875 13.0312 12.0938 11.6602 12.0938 9.9375C12.0938 8.25 10.6875 6.84375 9 6.84375ZM7.3125 10.5C6.99609 10.5 6.75 10.2539 6.75 9.9375C6.75 8.70703 7.73438 7.6875 9 7.6875C9.28125 7.6875 9.5625 7.96875 9.5625 8.25C9.5625 8.56641 9.28125 8.8125 9 8.8125C8.36719 8.8125 7.875 9.33984 7.875 9.9375C7.875 10.2539 7.59375 10.5 7.3125 10.5Z"
          fill="white"/>
</svg>
