<svg width="40" height="40" viewBox="0 0 40 40" fill="none" xmlns="http://www.w3.org/2000/svg">
<path d="M5.83998 34.0333H8.18665V18.3333C8.18665 17.5867 7.57998 16.9867 6.83332 16.9867H3.33331V31.5333C3.33331 32.9133 4.45998 34.0333 5.83998 34.0333Z" fill="#005FF9"/>
<path d="M25.72 23.3333C25.5067 23.3533 25.2933 23.3733 25.0667 23.3733C22.9667 23.3733 21.8133 22.3467 21.2133 21.4867C20.2467 20.0933 20.02 18.1133 20.6467 16.4333C20.72 16.2267 20.6867 16 20.56 15.82C20.4333 15.64 20.2267 15.5333 20.0067 15.5333C16.3067 15.5333 13.2933 18.5467 13.2933 22.2467C13.2933 25.9467 16.3067 28.96 20.0067 28.96C22.9867 28.96 25.5733 27.04 26.4333 24.1867C26.5 23.9733 26.4533 23.74 26.3067 23.5667C26.16 23.3933 25.94 23.3067 25.72 23.3333Z" fill="white"/>
<path d="M34.16 11.66H29.02L27.2266 7.48001C26.8333 6.56001 25.9266 5.96667 24.9266 5.96667H15.08C14.08 5.96667 13.1733 6.56001 12.78 7.48001L10.9866 11.66H5.83998C4.45998 11.66 3.33331 12.7867 3.33331 14.1667V15.6533H6.83331C8.31998 15.6533 9.51998 16.8533 9.51998 18.3333V34.0333H34.16C35.54 34.0333 36.6666 32.9133 36.6666 31.5333V14.1667C36.6666 12.7867 35.54 11.66 34.16 11.66ZM15.72 8.61334H24.28C24.6533 8.61334 24.9466 8.91334 24.9466 9.28001C24.9466 9.64668 24.6533 9.94668 24.28 9.94668H15.72C15.3533 9.94668 15.0533 9.64668 15.0533 9.28001C15.0533 8.91334 15.3533 8.61334 15.72 8.61334ZM20 31.4067C14.9466 31.4067 10.84 27.2933 10.84 22.2467C10.84 17.1933 14.9466 13.08 20 13.08C25.0533 13.08 29.16 17.1933 29.16 22.2467C29.16 27.2933 25.0533 31.4067 20 31.4067ZM32.56 15.9467H31.84C31.4666 15.9467 31.1733 15.6467 31.1733 15.28C31.1733 14.9133 31.4666 14.6133 31.84 14.6133H32.56C32.9266 14.6133 33.2266 14.9133 33.2266 15.28C33.2266 15.6467 32.9266 15.9467 32.56 15.9467Z" fill="#005FF9"/>
</svg>
