<svg width="23" height="19" viewBox="0 0 23 19" fill="none" xmlns="http://www.w3.org/2000/svg">
    <path d="M21.625 0.25H5.875C5.24219 0.25 4.75 0.777344 4.75 1.375V4.75H10.375V2.5H17.125V13.75H21.625C22.2227 13.75 22.75 13.2578 22.75 12.625V1.375C22.75 0.777344 22.2227 0.25 21.625 0.25ZM8.40625 3.87109C8.40625 4.04688 8.23047 4.1875 8.08984 4.1875H7.03516C6.85938 4.1875 6.71875 4.04688 6.71875 3.87109V2.81641C6.71875 2.67578 6.85938 2.5 7.03516 2.5H8.08984C8.23047 2.5 8.40625 2.67578 8.40625 2.81641V3.87109ZM20.7812 11.1836C20.7812 11.3594 20.6055 11.5 20.4648 11.5H19.4102C19.2344 11.5 19.0938 11.3594 19.0938 11.1836V10.1289C19.0938 9.98828 19.2344 9.8125 19.4102 9.8125H20.4648C20.6055 9.8125 20.7812 9.98828 20.7812 10.1289V11.1836ZM20.7812 7.52734C20.7812 7.70312 20.6055 7.84375 20.4648 7.84375H19.4102C19.2344 7.84375 19.0938 7.70312 19.0938 7.52734V6.47266C19.0938 6.33203 19.2344 6.15625 19.4102 6.15625H20.4648C20.6055 6.15625 20.7812 6.33203 20.7812 6.47266V7.52734ZM20.7812 3.87109C20.7812 4.04688 20.6055 4.1875 20.4648 4.1875H19.4102C19.2344 4.1875 19.0938 4.04688 19.0938 3.87109V2.81641C19.0938 2.67578 19.2344 2.5 19.4102 2.5H20.4648C20.6055 2.5 20.7812 2.67578 20.7812 2.81641V3.87109ZM14.875 5.875H1.375C0.742188 5.875 0.25 6.40234 0.25 7V17.125C0.25 17.7578 0.742188 18.25 1.375 18.25H14.875C15.4727 18.25 16 17.7578 16 17.125V7C16 6.40234 15.4727 5.875 14.875 5.875ZM3.625 8.125C4.22266 8.125 4.75 8.65234 4.75 9.25C4.75 9.88281 4.22266 10.375 3.625 10.375C2.99219 10.375 2.5 9.88281 2.5 9.25C2.5 8.65234 2.99219 8.125 3.625 8.125ZM13.75 16H2.5V14.875L4.75 12.625L5.875 13.75L10.375 9.25L13.75 12.625V16Z"
          fill="white"/>
</svg>
