<svg width="14" height="17" viewBox="0 0 14 17" fill="none" xmlns="http://www.w3.org/2000/svg">
    <path d="M12.6562 16.125C13.1133 16.125 13.5 15.7734 13.5 15.2812V14.4375C13.5 13.9805 13.1133 13.5938 12.6562 13.5938H0.84375C0.351562 13.5938 0 13.9805 0 14.4375V15.2812C0 15.7734 0.351562 16.125 0.84375 16.125H12.6562ZM4.5 1.21875V6H1.40625C0.773438 6 0.457031 6.77344 0.914062 7.23047L6.25781 12.5742C6.50391 12.8203 6.96094 12.8203 7.20703 12.5742L12.5508 7.23047C13.0078 6.77344 12.6914 6 12.0586 6H9V1.21875C9 0.761719 8.61328 0.375 8.15625 0.375H5.34375C4.85156 0.375 4.5 0.761719 4.5 1.21875Z"
          fill="white"/>
</svg>
